# xmcd
#
# Track frame offsets:
#	150
#	35232
#	65375
#	102277
#	136417
#	171277
#	205937
#	235562
#
# Disc length: 3534 seconds
#
# Revision: 2
# Processed by: cddbd v1.5.2PL0 Copyright (c) Steve Scherf et al.
# Submitted via: EZCDAudioConverter 8.0.2.1
#
DISCID=6d0dcc08
DTITLE=Hương Lan, Dũng Thanh Lâm - Ai Cho Tôi Tình Yêu
DYEAR=1996
DGENRE=World Pop
TTITLE0=Hương Lan, Dũng Thanh Lâm - Được tin em lấy chồng
TTITLE1=Dũng Thanh Lâm - Xuân
TTITLE2=Hương Lan, Dũng Thanh Lâm - Bao giờ biết tương tư
TTITLE3=Dũng Thanh Lâm - Cô Thắm về làng
TTITLE4=Hương Lan, Dũng Thanh Lâm - Mấy nhịp cầu tre
TTITLE5=Hương Lan, Dũng Thanh Lâm - Ai Cho Tôi Tình Yêu
TTITLE6=Dũng Thanh Lâm - Giòng dông kỷ niệm
TTITLE7=Dũng Thanh Lâm - Sài Gòn sống mãi trong tôi
EXTD=
EXTT0=
EXTT1=
EXTT2=
EXTT3=
EXTT4=
EXTT5=
EXTT6=
EXTT7=
PLAYORDER=
